<?xml version="1.0" encoding="iso-8859-1"?>
<!-- Generator: Adobe Illustrator 16.0.0, SVG Export Plug-In . SVG Version: 6.00 Build 0)  -->
<!DOCTYPE svg PUBLIC "-//W3C//DTD SVG 1.1//EN" "http://www.w3.org/Graphics/SVG/1.1/DTD/svg11.dtd">
<svg version="1.1" id="Capa_1" xmlns="http://www.w3.org/2000/svg" xmlns:xlink="http://www.w3.org/1999/xlink" x="0px" y="0px"
	 width="108.364px" height="108.364px" viewBox="0 0 108.364 108.364" style="enable-background:new 0 0 108.364 108.364;"
	 xml:space="preserve">
<g>
	<g>
		<path d="M54.182,0C24.258,0,0,24.258,0,54.182c0,29.924,24.258,54.183,54.182,54.183c29.923,0,54.182-24.259,54.182-54.183
			C108.364,24.258,84.105,0,54.182,0z M29.537,32.871c1.229-1.229,3.222-1.229,4.451,0l9.456,9.455c1.229,1.229,1.229,3.222,0,4.451
			c-1.229,1.229-3.222,1.229-4.451,0l-9.456-9.456C28.308,36.093,28.308,34.1,29.537,32.871z M73.312,75.66H35.055
			c-1.921,0-3.479-1.557-3.479-3.479c0-1.92,1.558-3.478,3.479-3.478h38.259c1.921,0,3.479,1.558,3.479,3.478
			C76.793,74.104,75.234,75.66,73.312,75.66z M78.826,37.322l-9.456,9.456c-1.229,1.229-3.222,1.229-4.451,0s-1.228-3.223,0-4.451
			l9.456-9.455c1.229-1.229,3.223-1.229,4.451,0C80.055,34.1,80.055,36.093,78.826,37.322z"/>
	</g>
</g>
<g>
</g>
<g>
</g>
<g>
</g>
<g>
</g>
<g>
</g>
<g>
</g>
<g>
</g>
<g>
</g>
<g>
</g>
<g>
</g>
<g>
</g>
<g>
</g>
<g>
</g>
<g>
</g>
<g>
</g>
</svg>
