<?xml version="1.0" encoding="iso-8859-1"?>
<!-- Generator: Adobe Illustrator 16.0.0, SVG Export Plug-In . SVG Version: 6.00 Build 0)  -->
<!DOCTYPE svg PUBLIC "-//W3C//DTD SVG 1.1//EN" "http://www.w3.org/Graphics/SVG/1.1/DTD/svg11.dtd">
<svg version="1.1" id="Capa_1" xmlns="http://www.w3.org/2000/svg" xmlns:xlink="http://www.w3.org/1999/xlink" x="0px" y="0px"
	 width="108.364px" height="108.364px" viewBox="0 0 108.364 108.364" style="enable-background:new 0 0 108.364 108.364;"
	 xml:space="preserve">
<g>
	<g>
		<path d="M37.92,26.657c6.281,0,11.541,4.424,12.847,10.316h6.677c1.293-5.912,6.563-10.354,12.856-10.354
			c5.946,0,10.979,3.965,12.607,9.389l9.098-4.106c0.012,0.043,6.887-3.116,9.416-4.245C92.137,11.155,74.467,0,54.182,0
			C33.873,0,16.186,11.18,6.909,27.714l18.385,8.403C26.899,30.657,31.948,26.657,37.92,26.657z"/>
		<path d="M83.447,39.377c0.004,0.137,0.021,0.271,0.021,0.408c0,7.262-5.908,13.168-13.168,13.168
			c-7.098,0-12.887-5.65-13.142-12.688h-6.095C50.828,47.32,45.03,52.99,37.92,52.99c-7.259,0-13.166-5.906-13.166-13.168
			c0-0.111,0.014-0.219,0.017-0.33l-19.396-8.86C1.932,37.754,0,45.743,0,54.182c0,29.924,24.258,54.183,54.182,54.183
			c29.923,0,54.182-24.259,54.182-54.183c0-8.514-1.97-16.563-5.468-23.731L83.447,39.377z M77.17,65.221
			C73.327,74.107,64.327,79.85,54.242,79.85c-10.301,0-19.354-5.771-23.064-14.703c-0.636-1.528,0.089-3.284,1.62-3.922
			c0.376-0.155,0.766-0.229,1.15-0.229c1.176,0.002,2.292,0.696,2.771,1.853c2.777,6.684,9.655,11.004,17.523,11.004
			c7.689,0,14.527-4.322,17.421-11.012c0.658-1.521,2.424-2.222,3.944-1.564C77.127,61.934,77.827,63.7,77.17,65.221z"/>
	</g>
</g>
<g>
</g>
<g>
</g>
<g>
</g>
<g>
</g>
<g>
</g>
<g>
</g>
<g>
</g>
<g>
</g>
<g>
</g>
<g>
</g>
<g>
</g>
<g>
</g>
<g>
</g>
<g>
</g>
<g>
</g>
</svg>
