<?xml version="1.0" encoding="iso-8859-1"?>
<!-- Generator: Adobe Illustrator 19.0.0, SVG Export Plug-In . SVG Version: 6.00 Build 0)  -->
<svg version="1.1" id="Layer_1" xmlns="http://www.w3.org/2000/svg" xmlns:xlink="http://www.w3.org/1999/xlink" x="0px" y="0px"
	 viewBox="0 0 512 512" style="enable-background:new 0 0 512 512;" xml:space="preserve">
<g>
	<path style="fill:#FFDBA8;" d="M239.287,392.359c0,65.975-53.666,119.641-119.641,119.641c-0.293,0-0.585,0-0.878-0.01
		c-65.578-0.47-118.763-53.948-118.763-119.63s53.185-119.16,118.763-119.63c0.293-0.01,0.585-0.01,0.878-0.01
		C185.621,272.718,239.287,326.384,239.287,392.359z"/>
	<path style="fill:#FFDBA8;" d="M511.995,392.359c0,65.975-53.666,119.641-119.641,119.641h-0.167
		c-65.891-0.094-119.474-53.718-119.474-119.641s53.582-119.547,119.474-119.641h0.167
		C458.329,272.718,511.995,326.384,511.995,392.359z"/>
	<path style="fill:#FFDBA8;" d="M511.995,119.641c0,65.975-53.666,119.641-119.641,119.641h-0.167
		c-65.891-0.094-119.474-53.718-119.474-119.641S326.296,0.094,392.187,0h0.167C458.329,0,511.995,53.666,511.995,119.641z"/>
</g>
<g>
	<path style="fill:#FFC473;" d="M511.995,392.359c0,65.975-53.666,119.641-119.641,119.641h-0.167V272.718h0.167
		C458.329,272.718,511.995,326.384,511.995,392.359z"/>
	<path style="fill:#FFC473;" d="M392.354,239.282h-0.167V0h0.167c65.975,0,119.641,53.666,119.641,119.641
		S458.329,239.282,392.354,239.282z"/>
	<path style="fill:#FFC473;" d="M239.287,392.359c0,65.975-53.666,119.641-119.641,119.641c-0.293,0-0.585,0-0.878-0.01V272.729
		c0.293-0.01,0.585-0.01,0.878-0.01C185.621,272.718,239.287,326.384,239.287,392.359z"/>
</g>
<rect x="73.106" y="339.216" style="fill:#57555C;" width="31.347" height="31.347"/>
<rect x="130.581" y="339.216" style="fill:#3C3A41;" width="31.347" height="31.347"/>
<rect x="347.951" y="348.62" style="fill:#57555C;" width="31.347" height="31.347"/>
<rect x="405.42" y="348.62" style="fill:#3C3A41;" width="31.347" height="31.347"/>
<path style="fill:#FD7052;" d="M411.016,436.266c0,5.193-2.111,9.895-5.517,13.302s-8.119,5.517-13.312,5.517
	c-10.397,0-18.819-8.432-18.819-18.819c0-5.204,2.111-9.906,5.507-13.312c3.406-3.406,8.119-5.517,13.312-5.517
	s9.906,2.111,13.312,5.517C408.905,426.36,411.016,431.062,411.016,436.266z"/>
<rect x="347.951" y="67.396" style="fill:#57555C;" width="31.347" height="31.347"/>
<rect x="405.42" y="67.396" style="fill:#3C3A41;" width="31.347" height="31.347"/>
<rect x="361.535" y="144.509" style="fill:#FD7052;" width="61.304" height="31.347"/>
<path style="fill:#FFDBA8;" d="M239.287,119.641c0,65.975-53.666,119.641-119.641,119.641c-0.293,0-0.585,0-0.878-0.01
	c-65.578-0.47-118.763-53.948-118.763-119.63S53.191,0.481,118.768,0.01C119.061,0,119.353,0,119.646,0
	C185.621,0,239.287,53.666,239.287,119.641z"/>
<path style="fill:#FFC473;" d="M119.646,239.282c-0.293,0-0.585,0-0.878-0.01V0.01C119.061,0,119.353,0,119.646,0
	c65.975,0,119.641,53.666,119.641,119.641S185.621,239.282,119.646,239.282z"/>
<rect x="74.151" y="67.396" style="fill:#57555C;" width="31.347" height="31.347"/>
<rect x="131.626" y="67.396" style="fill:#3C3A41;" width="31.347" height="31.347"/>
<g>
	<path style="fill:#FF4F18;" d="M405.499,422.954c3.406,3.406,5.517,8.108,5.517,13.312c0,5.193-2.111,9.895-5.517,13.302
		s-8.119,5.517-13.312,5.517v-37.648C397.38,417.437,402.092,419.547,405.499,422.954z"/>
	<rect x="392.182" y="144.509" style="fill:#FF4F18;" width="30.657" height="31.347"/>
</g>
<path style="fill:#FD7052;" d="M160.225,139.311v0.533c0,22.727-18.484,41.211-41.211,41.211h-0.491
	c-22.727,0-41.211-18.484-41.211-41.211h31.347c0,5.444,4.42,9.864,9.864,9.864h0.491c5.444,0,9.864-4.42,9.864-9.864v-0.533
	H160.225z"/>
<path style="fill:#FF4F18;" d="M160.225,139.311v0.533c0,22.727-18.484,41.211-41.211,41.211h-0.251v-31.347h0.251
	c5.444,0,9.864-4.42,9.864-9.864v-0.533H160.225z"/>
<path style="fill:#FD7052;" d="M160.231,452.261v-0.533c0-22.727-18.484-41.211-41.211-41.211h-0.491
	c-22.727,0-41.211,18.484-41.211,41.211h31.347c0-5.444,4.42-9.864,9.864-9.864h0.491c5.444,0,9.864,4.42,9.864,9.864v0.533H160.231
	z"/>
<path style="fill:#FF4F18;" d="M160.231,452.261v-0.533c0-22.727-18.484-41.211-41.211-41.211h-0.251v31.347h0.251
	c5.444,0,9.864,4.42,9.864,9.864v0.533H160.231z"/>
<g>
</g>
<g>
</g>
<g>
</g>
<g>
</g>
<g>
</g>
<g>
</g>
<g>
</g>
<g>
</g>
<g>
</g>
<g>
</g>
<g>
</g>
<g>
</g>
<g>
</g>
<g>
</g>
<g>
</g>
</svg>
